<svg xmlns="http://www.w3.org/2000/svg" viewBox="0 0 256 256">
  <defs>
    <linearGradient id="pscatch-grad" x1="0%" y1="0%" x2="100%" y2="100%">
      <stop offset="0%" stop-color="#60A5FA" />
      <stop offset="100%" stop-color="#6366F1" />
    </linearGradient>
  </defs>
  
  <rect width="256" height="256" rx="56" fill="#0a0f1c" />
  
  <path d="M48 112 C48 72, 80 64, 128 64 C176 64, 208 72, 208 112 C208 160, 184 192, 160 192 C144 192, 136 160, 128 160 C120 160, 112 192, 96 192 C72 192, 48 160, 48 112 Z" fill="url(#pscatch-grad)" />
  
  <rect x="76" y="104" width="24" height="8" rx="2" fill="#0a0f1c" />
  <rect x="84" y="96" width="8" height="24" rx="2" fill="#0a0f1c" />
  
  <circle cx="168" cy="96" r="6" fill="#0a0f1c" />
  <circle cx="180" cy="108" r="6" fill="#0a0f1c" />
  <circle cx="168" cy="120" r="6" fill="#0a0f1c" />
  <circle cx="156" cy="108" r="6" fill="#0a0f1c" />
</svg>
